<svg width="155" height="20" viewBox="0 0 155 20" fill="none" xmlns="http://www.w3.org/2000/svg">
<path fill-rule="evenodd" clip-rule="evenodd" d="M0 0H8.69615H9.24538C12.0259 0 14.28 2.23311 14.28 4.98778C14.28 7.09008 12.9671 8.8886 11.1094 9.62256C6.5532 9.78282 2.55934 11.405 0.102877 13.8194H0V0Z" fill="#095CA0"/>
<path d="M11.2858 19.04C11.2858 19.04 9.86382 16.625 8.80879 15.6405C7.47947 14.4002 5.55196 13.4355 5.32261 13.4355C5.09325 13.4355 4.15953 15.0146 3.80887 16.1918C3.48989 17.2627 3.53364 19.04 3.53364 19.04H11.2858Z" fill="#1F3A6F"/>
<path d="M11.2808 19.04C11.2808 19.04 14.2032 17.5893 14.2032 14.3345C14.2032 11.0797 11.6005 9.62894 10.6872 9.67463C9.77393 9.72031 8.99766 10.1559 8.49536 10.4513C7.9501 10.7719 7.2168 11.3193 7.2168 11.3193C7.2168 11.3193 9.08293 13.1395 9.86526 14.5629C10.7484 16.1698 11.2808 19.04 11.2808 19.04Z" fill="#73C4EF"/>
<path d="M26.88 16.52V4.66001H22.34V2.12001H34.14V4.66001H29.6V16.52H26.88Z" fill="white"/>
<path d="M34.371 16.52V5.72001H36.771V8.36001L36.511 8.02001C36.651 7.64667 36.8376 7.30667 37.071 7.00001C37.3043 6.69334 37.591 6.44001 37.931 6.24001C38.191 6.08001 38.4743 5.95667 38.781 5.87001C39.0876 5.77667 39.4043 5.72001 39.731 5.70001C40.0576 5.67334 40.3843 5.68001 40.711 5.72001V8.26001C40.411 8.16667 40.061 8.13667 39.661 8.17001C39.2676 8.19667 38.911 8.28667 38.591 8.44001C38.271 8.58667 38.001 8.78334 37.781 9.03001C37.561 9.27001 37.3943 9.55667 37.281 9.89001C37.1676 10.2167 37.111 10.5867 37.111 11V16.52H34.371Z" fill="white"/>
<path d="M45.0183 16.82C44.245 16.82 43.5883 16.6733 43.0483 16.38C42.515 16.08 42.1083 15.6833 41.8283 15.19C41.555 14.69 41.4183 14.14 41.4183 13.54C41.4183 13.04 41.495 12.5833 41.6483 12.17C41.8016 11.7567 42.0483 11.3933 42.3883 11.08C42.735 10.76 43.1983 10.4933 43.7783 10.28C44.1783 10.1333 44.655 10.0033 45.2083 9.89001C45.7616 9.77667 46.3883 9.67001 47.0883 9.57001C47.7883 9.46334 48.5583 9.34667 49.3983 9.22001L48.4183 9.76001C48.4183 9.12001 48.265 8.65001 47.9583 8.35001C47.6516 8.05001 47.1383 7.90001 46.4183 7.90001C46.0183 7.90001 45.6016 7.99667 45.1683 8.19001C44.735 8.38334 44.4316 8.72667 44.2583 9.22001L41.7983 8.44001C42.0716 7.54667 42.585 6.82001 43.3383 6.26001C44.0916 5.70001 45.1183 5.42001 46.4183 5.42001C47.3716 5.42001 48.2183 5.56667 48.9583 5.86001C49.6983 6.15334 50.2583 6.66001 50.6383 7.38001C50.8516 7.78001 50.9783 8.18001 51.0183 8.58001C51.0583 8.98001 51.0783 9.42667 51.0783 9.92001V16.52H48.6983V14.3L49.0383 14.76C48.5116 15.4867 47.9416 16.0133 47.3283 16.34C46.7216 16.66 45.9516 16.82 45.0183 16.82ZM45.5983 14.68C46.0983 14.68 46.5183 14.5933 46.8583 14.42C47.205 14.24 47.4783 14.0367 47.6783 13.81C47.885 13.5833 48.025 13.3933 48.0983 13.24C48.2383 12.9467 48.3183 12.6067 48.3383 12.22C48.365 11.8267 48.3783 11.5 48.3783 11.24L49.1783 11.44C48.3716 11.5733 47.7183 11.6867 47.2183 11.78C46.7183 11.8667 46.315 11.9467 46.0083 12.02C45.7016 12.0933 45.4316 12.1733 45.1983 12.26C44.9316 12.3667 44.715 12.4833 44.5483 12.61C44.3883 12.73 44.2683 12.8633 44.1883 13.01C44.115 13.1567 44.0783 13.32 44.0783 13.5C44.0783 13.7467 44.1383 13.96 44.2583 14.14C44.385 14.3133 44.5616 14.4467 44.7883 14.54C45.015 14.6333 45.285 14.68 45.5983 14.68Z" fill="white"/>
<path d="M60.6585 16.52V11.42C60.6585 11.1733 60.6451 10.86 60.6185 10.48C60.5918 10.0933 60.5085 9.70667 60.3685 9.32001C60.2285 8.93334 59.9985 8.61001 59.6785 8.35001C59.3651 8.09001 58.9185 7.96001 58.3385 7.96001C58.1051 7.96001 57.8551 7.99667 57.5885 8.07001C57.3218 8.14334 57.0718 8.28667 56.8385 8.50001C56.6051 8.70667 56.4118 9.01334 56.2585 9.42001C56.1118 9.82667 56.0385 10.3667 56.0385 11.04L54.4785 10.3C54.4785 9.44667 54.6518 8.64667 54.9985 7.90001C55.3451 7.15334 55.8651 6.55001 56.5585 6.09001C57.2585 5.63001 58.1385 5.40001 59.1985 5.40001C60.0451 5.40001 60.7351 5.54334 61.2685 5.83001C61.8018 6.11667 62.2151 6.48001 62.5085 6.92001C62.8085 7.36001 63.0218 7.82001 63.1485 8.30001C63.2751 8.77334 63.3518 9.20667 63.3785 9.60001C63.4051 9.99334 63.4185 10.28 63.4185 10.46V16.52H60.6585ZM53.2785 16.52V5.72001H55.6985V9.30001H56.0385V16.52H53.2785Z" fill="white"/>
<path d="M69.8533 16.82C68.4933 16.82 67.3933 16.5133 66.5533 15.9C65.72 15.28 65.2133 14.4067 65.0333 13.28L67.8133 12.86C67.9266 13.3667 68.1766 13.7633 68.5633 14.05C68.9566 14.3367 69.4533 14.48 70.0533 14.48C70.5466 14.48 70.9266 14.3867 71.1933 14.2C71.46 14.0067 71.5933 13.74 71.5933 13.4C71.5933 13.1867 71.54 13.0167 71.4333 12.89C71.3266 12.7567 71.0866 12.6267 70.7133 12.5C70.3466 12.3733 69.7733 12.2067 68.9933 12C68.1133 11.7733 67.41 11.52 66.8833 11.24C66.3566 10.96 65.9766 10.6267 65.7433 10.24C65.51 9.84667 65.3933 9.37334 65.3933 8.82001C65.3933 8.12667 65.57 7.52667 65.9233 7.02001C66.2766 6.50667 66.7733 6.11334 67.4133 5.84001C68.06 5.56001 68.82 5.42001 69.6933 5.42001C70.54 5.42001 71.29 5.55001 71.9433 5.81001C72.5966 6.07001 73.1233 6.44001 73.5233 6.92001C73.93 7.40001 74.18 7.96667 74.2733 8.62001L71.4933 9.12001C71.4466 8.72001 71.2733 8.40334 70.9733 8.17001C70.6733 7.93667 70.2666 7.80001 69.7533 7.76001C69.2533 7.72667 68.85 7.79334 68.5433 7.96001C68.2433 8.12667 68.0933 8.36667 68.0933 8.68001C68.0933 8.86667 68.1566 9.02334 68.2833 9.15001C68.4166 9.27667 68.6866 9.40667 69.0933 9.54001C69.5066 9.67334 70.1333 9.84667 70.9733 10.06C71.7933 10.2733 72.45 10.5233 72.9433 10.81C73.4433 11.09 73.8066 11.43 74.0333 11.83C74.26 12.2233 74.3733 12.7 74.3733 13.26C74.3733 14.3667 73.9733 15.2367 73.1733 15.87C72.3733 16.5033 71.2666 16.82 69.8533 16.82Z" fill="white"/>
<path d="M85.9947 16.82C84.5547 16.82 83.3114 16.5067 82.2647 15.88C81.2247 15.2533 80.4214 14.3767 79.8547 13.25C79.2947 12.1233 79.0147 10.8133 79.0147 9.32001C79.0147 7.82667 79.2947 6.51667 79.8547 5.39001C80.4214 4.26334 81.2247 3.38667 82.2647 2.76001C83.3114 2.13334 84.5547 1.82001 85.9947 1.82001C87.6481 1.82001 89.0347 2.23001 90.1547 3.05001C91.2814 3.87001 92.0747 4.98001 92.5347 6.38001L89.7947 7.14001C89.528 6.26667 89.0781 5.59001 88.4447 5.11001C87.8114 4.62334 86.9947 4.38001 85.9947 4.38001C85.0814 4.38001 84.318 4.58334 83.7047 4.99001C83.098 5.39667 82.6414 5.97001 82.3347 6.71001C82.0281 7.45001 81.8747 8.32001 81.8747 9.32001C81.8747 10.32 82.0281 11.19 82.3347 11.93C82.6414 12.67 83.098 13.2433 83.7047 13.65C84.318 14.0567 85.0814 14.26 85.9947 14.26C86.9947 14.26 87.8114 14.0167 88.4447 13.53C89.0781 13.0433 89.528 12.3667 89.7947 11.5L92.5347 12.26C92.0747 13.66 91.2814 14.77 90.1547 15.59C89.0347 16.41 87.6481 16.82 85.9947 16.82Z" fill="white"/>
<path d="M94.5566 4.22001V1.82001H97.2766V4.22001H94.5566ZM94.5566 16.52V5.72001H97.2766V16.52H94.5566Z" fill="white"/>
<path d="M99.8946 16.52V5.72001H102.295V8.36001L102.035 8.02001C102.175 7.64667 102.361 7.30667 102.595 7.00001C102.828 6.69334 103.115 6.44001 103.455 6.24001C103.715 6.08001 103.998 5.95667 104.305 5.87001C104.611 5.77667 104.928 5.72001 105.255 5.70001C105.581 5.67334 105.908 5.68001 106.235 5.72001V8.26001C105.935 8.16667 105.585 8.13667 105.185 8.17001C104.791 8.19667 104.435 8.28667 104.115 8.44001C103.795 8.58667 103.525 8.78334 103.305 9.03001C103.085 9.27001 102.918 9.55667 102.805 9.89001C102.691 10.2167 102.635 10.5867 102.635 11V16.52H99.8946Z" fill="white"/>
<path d="M112.581 16.82C111.475 16.82 110.498 16.5833 109.651 16.11C108.811 15.63 108.151 14.9733 107.671 14.14C107.198 13.3 106.961 12.34 106.961 11.26C106.961 10.08 107.195 9.05334 107.661 8.18001C108.128 7.30667 108.771 6.63001 109.591 6.15001C110.411 5.66334 111.355 5.42001 112.421 5.42001C113.555 5.42001 114.518 5.68667 115.311 6.22001C116.105 6.75334 116.691 7.50334 117.071 8.47001C117.451 9.43667 117.585 10.5733 117.471 11.88H114.781V10.88C114.781 9.78001 114.605 8.99001 114.251 8.51001C113.905 8.02334 113.335 7.78001 112.541 7.78001C111.615 7.78001 110.931 8.06334 110.491 8.63001C110.058 9.19001 109.841 10.02 109.841 11.12C109.841 12.1267 110.058 12.9067 110.491 13.46C110.931 14.0067 111.575 14.28 112.421 14.28C112.955 14.28 113.411 14.1633 113.791 13.93C114.171 13.6967 114.461 13.36 114.661 12.92L117.381 13.7C116.975 14.6867 116.331 15.4533 115.451 16C114.578 16.5467 113.621 16.82 112.581 16.82ZM109.001 11.88V9.86001H116.161V11.88H109.001Z" fill="white"/>
<path d="M124.649 16.82C123.576 16.82 122.679 16.57 121.959 16.07C121.239 15.57 120.696 14.89 120.329 14.03C119.969 13.17 119.789 12.2 119.789 11.12C119.789 10.04 119.969 9.07001 120.329 8.21001C120.689 7.35001 121.219 6.67001 121.919 6.17001C122.619 5.67001 123.483 5.42001 124.509 5.42001C125.543 5.42001 126.443 5.66667 127.209 6.16001C127.976 6.65334 128.569 7.33001 128.989 8.19001C129.416 9.04334 129.629 10.02 129.629 11.12C129.629 12.2 129.419 13.17 128.999 14.03C128.586 14.89 128.006 15.57 127.259 16.07C126.513 16.57 125.643 16.82 124.649 16.82ZM119.329 16.52V2.12001H122.069V9.12001H121.729V16.52H119.329ZM124.209 14.4C124.796 14.4 125.276 14.2533 125.649 13.96C126.023 13.6667 126.299 13.2733 126.479 12.78C126.659 12.28 126.749 11.7267 126.749 11.12C126.749 10.52 126.656 9.97334 126.469 9.48001C126.283 8.98001 125.993 8.58334 125.599 8.29001C125.213 7.99001 124.716 7.84001 124.109 7.84001C123.543 7.84001 123.083 7.97667 122.729 8.25001C122.383 8.52334 122.129 8.90667 121.969 9.40001C121.809 9.89334 121.729 10.4667 121.729 11.12C121.729 11.7733 121.809 12.3467 121.969 12.84C122.129 13.3333 122.389 13.7167 122.749 13.99C123.116 14.2633 123.603 14.4 124.209 14.4Z" fill="white"/>
<path d="M136.31 16.82C135.223 16.82 134.27 16.5767 133.45 16.09C132.63 15.6033 131.99 14.9333 131.53 14.08C131.077 13.22 130.85 12.2333 130.85 11.12C130.85 9.99334 131.083 9.00334 131.55 8.15001C132.017 7.29001 132.66 6.62001 133.48 6.14001C134.3 5.66001 135.243 5.42001 136.31 5.42001C137.397 5.42001 138.35 5.66334 139.17 6.15001C139.997 6.63667 140.64 7.31001 141.1 8.17001C141.56 9.02334 141.79 10.0067 141.79 11.12C141.79 12.24 141.557 13.23 141.09 14.09C140.63 14.9433 139.987 15.6133 139.16 16.1C138.34 16.58 137.39 16.82 136.31 16.82ZM136.31 14.28C137.183 14.28 137.833 13.9867 138.26 13.4C138.693 12.8067 138.91 12.0467 138.91 11.12C138.91 10.16 138.69 9.39334 138.25 8.82001C137.817 8.24667 137.17 7.96001 136.31 7.96001C135.717 7.96001 135.23 8.09334 134.85 8.36001C134.47 8.62667 134.187 8.99667 134 9.47001C133.82 9.94334 133.73 10.4933 133.73 11.12C133.73 12.0867 133.947 12.8567 134.38 13.43C134.82 13.9967 135.463 14.28 136.31 14.28Z" fill="white"/>
<path d="M150.969 16.52V11.42C150.969 11.1733 150.956 10.86 150.929 10.48C150.902 10.0933 150.819 9.70667 150.679 9.32001C150.539 8.93334 150.309 8.61001 149.989 8.35001C149.676 8.09001 149.229 7.96001 148.649 7.96001C148.416 7.96001 148.166 7.99667 147.899 8.07001C147.632 8.14334 147.382 8.28667 147.149 8.50001C146.916 8.70667 146.722 9.01334 146.569 9.42001C146.422 9.82667 146.349 10.3667 146.349 11.04L144.789 10.3C144.789 9.44667 144.962 8.64667 145.309 7.90001C145.656 7.15334 146.176 6.55001 146.869 6.09001C147.569 5.63001 148.449 5.40001 149.509 5.40001C150.356 5.40001 151.046 5.54334 151.579 5.83001C152.112 6.11667 152.526 6.48001 152.819 6.92001C153.119 7.36001 153.332 7.82001 153.459 8.30001C153.586 8.77334 153.662 9.20667 153.689 9.60001C153.716 9.99334 153.729 10.28 153.729 10.46V16.52H150.969ZM143.589 16.52V5.72001H146.009V9.30001H146.349V16.52H143.589Z" fill="white"/>
</svg>
