<svg width="28" height="28" viewBox="0 0 28 28" fill="none" xmlns="http://www.w3.org/2000/svg">
<rect width="28" height="28" rx="7" fill="white"/>
<path fill-rule="evenodd" clip-rule="evenodd" d="M6.86 4.48H15.5562H16.1054C18.8859 4.48 21.14 6.7131 21.14 9.46778C21.14 11.5701 19.8271 13.3686 17.9694 14.1026C13.4132 14.2628 9.41934 15.885 6.96288 18.2994H6.86V4.48Z" fill="#095CA0"/>
<path d="M18.1458 23.52C18.1458 23.52 16.7238 21.1049 15.6688 20.1205C14.3395 18.8802 12.412 17.9155 12.1826 17.9155C11.9533 17.9155 11.0195 19.4946 10.6689 20.6718C10.3499 21.7427 10.3936 23.52 10.3936 23.52H18.1458Z" fill="#1F3A6F"/>
<path d="M18.1408 23.52C18.1408 23.52 21.0632 22.0693 21.0632 18.8145C21.0632 15.5596 18.4604 14.1089 17.5472 14.1546C16.6339 14.2003 15.8576 14.6358 15.3553 14.9312C14.8101 15.2519 14.0768 15.7993 14.0768 15.7993C14.0768 15.7993 15.9429 17.6195 16.7252 19.0429C17.6084 20.6498 18.1408 23.52 18.1408 23.52Z" fill="#73C4EF"/>
</svg>
